<?xml version="1.0" ?><svg viewBox="0 0 512 512" xmlns="http://www.w3.org/2000/svg"><defs><style>.cls-1{fill:#00659d;}.cls-2{fill:#005686;}.cls-3{fill:#0071af;}.cls-4{fill:#338dbf;}.cls-5{fill:#006095;}.cls-6{fill:#5ca4cc;}.cls-7{fill:#f9b7b7;}.cls-8{fill:#f0a5a5;}.cls-9{fill:#dfdfdf;}.cls-10{fill:#2b78a3;}.cls-11{fill:#4e8cae;}.cls-12{fill:#bebebe;}.cls-13{fill:#d49c9c;opacity:0.15;}</style></defs><g data-name="/ FLAT" id="_FLAT"><path class="cls-1" d="M152,432v40a16.00008,16.00008,0,0,0,16,16H344a16.00008,16.00008,0,0,0,16-16V432Z"/><path class="cls-2" d="M360,472V432H257.0437a445.10516,445.10516,0,0,1-104.92749,41.85522A15.99575,15.99575,0,0,0,168,488H344A16.00008,16.00008,0,0,0,360,472Z"/><path class="cls-3" d="M40,255.75944H472a16,16,0,0,1,16,16v.00019A175.99981,175.99981,0,0,1,312.00019,447.75944H199.99981A175.99981,175.99981,0,0,1,24,271.75963v-.00019a16,16,0,0,1,16-16Z"/><path class="cls-4" d="M486.36426,295.7594A177.51427,177.51427,0,0,0,488,271.75964v-.00024a16.00008,16.00008,0,0,0-16-16H40a16.00008,16.00008,0,0,0-16,16v.00024a177.51427,177.51427,0,0,0,1.63574,23.99976Z"/><path class="cls-5" d="M472,255.7594H432.70776a449.85179,449.85179,0,0,1-206.89013,192h86.18261A175.99978,175.99978,0,0,0,488,271.75964v-.00024A16.00008,16.00008,0,0,0,472,255.7594Z"/><path class="cls-6" d="M296,424h-8V408h8a147.609,147.609,0,0,0,136.61523-91.07666l14.76954,6.15332A163.567,163.567,0,0,1,296,424Z"/><path class="cls-7" d="M304,40H180.68628A107.882,107.882,0,0,0,104.4021,71.5979V71.598A56.00046,56.00046,0,0,1,64.804,88H24V192H55.00317a72.001,72.001,0,0,1,32.19947,7.60126A79.553,79.553,0,0,0,122.78027,208H216a16.00008,16.00008,0,0,0,16-16v-.00006A16,16,0,0,0,216,176h16a16.00008,16.00008,0,0,0,16-16v-.00006A16,16,0,0,0,232,144h16a16.00008,16.00008,0,0,0,16-16v-.00006A16,16,0,0,0,248,112h13.85938a15.99994,15.99994,0,0,0,16-16v-.00006a15.99989,15.99989,0,0,0-16-15.99994H264A40.00006,40.00006,0,0,0,304,40Z"/><path class="cls-8" d="M72,151.76279v-.00039a7.98325,7.98325,0,0,1,7.51894-7.9769,130.98051,130.98051,0,0,0,92.05723-45.58433l1.14307-1.33355A8.00026,8.00026,0,0,1,184,96h0a8.00025,8.00025,0,0,1,.86765,11.28078l-1.143,1.3335A146.96306,146.96306,0,0,1,80.43615,159.75933,8.00074,8.00074,0,0,1,72,151.76279Z"/><path class="cls-9" d="M400,136H384a24.02718,24.02718,0,0,1,24-24h4a12,12,0,0,0,0-24,28,28,0,0,1,0-56,12.01343,12.01343,0,0,0,12-12V16h16v4a28.03146,28.03146,0,0,1-28,28,12,12,0,0,0,0,24,28,28,0,0,1,0,56h-4A8.00917,8.00917,0,0,0,400,136Z"/><path class="cls-9" d="M456,136H440a24.02718,24.02718,0,0,1,24-24h4a12,12,0,0,0,0-24,28,28,0,0,1,0-56,12.01343,12.01343,0,0,0,12-12V16h16v4a28.03146,28.03146,0,0,1-28,28,12,12,0,0,0,0,24,28,28,0,0,1,0,56h-4A8.00917,8.00917,0,0,0,456,136Z"/><rect class="cls-8" height="16" rx="7.99999" width="56" x="200" y="72"/><rect class="cls-8" height="16" rx="7.99999" width="64" x="168" y="136"/><rect class="cls-8" height="16" rx="7.99999" width="64" x="152" y="168"/><path class="cls-9" d="M285.799,61.799l88.82844,88.82844A32,32,0,0,0,397.25483,160H488v.00006A55.99994,55.99994,0,0,1,432.00006,216H407.196a56,56,0,0,1-39.598-16.402L257.799,89.799c-12.47266-12.47266-3.639-33.799,14-33.799h.00006A19.799,19.799,0,0,1,285.799,61.799Z"/><path class="cls-10" d="M472,255.7594H432.70776a448.141,448.141,0,0,1-24.84594,40h78.50244A177.51427,177.51427,0,0,0,488,271.75964v-.00024A16.00008,16.00008,0,0,0,472,255.7594Z"/><path class="cls-11" d="M296,408h-.4375q-3.75219,2.61072-7.5625,5.14343V424h8A163.567,163.567,0,0,0,447.38477,323.07666l-14.76954-6.15332A147.609,147.609,0,0,1,296,408Z"/><path class="cls-12" d="M378.25684,207.93738A55.9955,55.9955,0,0,0,407.196,216H432a55.99994,55.99994,0,0,0,56-55.99994V160H449.58252A160.18886,160.18886,0,0,1,378.25684,207.93738Z"/><path class="cls-13" d="M232,192v-.00006a15.93456,15.93456,0,0,0-4.49048-11.09815A167.20118,167.20118,0,0,1,136.00024,208H216A16.00008,16.00008,0,0,0,232,192Z"/><rect class="cls-8" height="16" rx="7.99999" width="64" x="184" y="104"/></g></svg>